<svg width="24" height="24" viewBox="0 0 24 24" fill="none" xmlns="http://www.w3.org/2000/svg">
<path d="M6.6002 6.54355L5.04395 4.9873V16.1811L5.0627 16.7061C5.0627 16.9498 5.1002 17.2311 5.19395 17.5123L17.4939 21.8436L20.5502 20.4936L6.6002 6.54355Z" fill="#00C4B3"/>
<path d="M20.5502 20.4939L17.4939 21.8439L5.23145 17.5127C5.4752 18.4127 5.98145 19.4064 6.54395 19.9877L10.5377 23.9627L19.4627 23.9814L20.5502 20.4939Z" fill="#22D3C5"/>
<path d="M0.318667 12.2063C-0.0750826 12.6188 0.131167 13.5 0.749917 14.1563L3.50617 16.9313L5.23117 17.55C5.17492 17.2688 5.09992 16.9875 5.09992 16.7438L5.08117 16.2188L5.04367 5.00625M20.5499 20.4938L21.8999 17.4188L17.5874 5.11875C17.3062 5.0625 17.0249 5.00625 16.7812 4.9875L16.2374 4.96875L5.06242 4.9875" fill="#0075C9"/>
<path d="M17.5498 5.11865C17.5873 5.11865 17.5873 5.11865 17.5498 5.11865C17.5873 5.11865 17.5873 5.11865 17.5498 5.11865ZM20.5498 20.4937L23.8686 19.4062V10.2749L20.0436 6.43115C19.4811 5.86865 18.4873 5.34365 17.5686 5.11865L21.8998 17.4187" fill="#00A8E1"/>
<path d="M16.9689 3.4125L14.1939 0.656249C13.5564 0.0187489 12.6939 -0.168751 12.2439 0.224999L5.04395 4.9875H16.2002L16.7439 5.00625C16.9877 5.00625 17.2689 5.04375 17.5502 5.1375L16.9689 3.4125Z" fill="#00C4B3"/>
</svg>
