<svg width="24" height="24" viewBox="0 0 24 24" fill="none" xmlns="http://www.w3.org/2000/svg">
<mask id="mask0_7703_9561" style="mask-type:luminance" maskUnits="userSpaceOnUse" x="0" y="0" width="24" height="24">
<path d="M0 0H24V24H0V0Z" fill="white"/>
</mask>
<g mask="url(#mask0_7703_9561)">
<path d="M0 0H24V24H0V0Z" fill="#FFD600"/>
</g>
<path d="M15.6758 18.1253C16.1217 18.8948 16.6062 19.6321 17.6326 19.6321C18.4948 19.6321 18.9471 19.1769 18.9471 18.547C18.9471 17.7932 18.4793 17.5255 17.5308 17.0867L17.0109 16.8512C15.5101 16.1748 14.5121 15.3272 14.5121 13.537C14.5121 11.887 15.7009 10.6314 17.5585 10.6314C18.8813 10.6314 19.8318 11.1182 20.5173 12.3929L18.8975 13.4931C18.5412 12.8167 18.1558 12.5504 17.5585 12.5504C16.949 12.5504 16.5631 12.9591 16.5631 13.4931C16.5631 14.1531 16.9496 14.4201 17.842 14.8288L18.362 15.0644C20.1307 15.8646 21.1282 16.6821 21.1282 18.5196C21.1282 20.4995 19.6565 21.5846 17.6809 21.5846C15.7486 21.5846 14.6513 20.5543 14.0404 19.2788L15.6758 18.1253ZM8.21047 18.1814C8.5365 18.8017 9.03204 19.2788 9.74463 19.2788C10.4263 19.2788 10.8188 18.9926 10.8188 17.8801V10.6307H12.9663V18.2307C12.9663 20.5358 11.7079 21.5846 9.87027 21.5846C8.20983 21.5846 7.01135 20.3893 6.52295 19.2788L8.21047 18.1814Z" fill="#000001"/>
</svg>
