<?xml version="1.0" standalone="no"?>
<!DOCTYPE svg PUBLIC "-//W3C//DTD SVG 20010904//EN"
 "http://www.w3.org/TR/2001/REC-SVG-20010904/DTD/svg10.dtd">
<svg version="1.0" xmlns="http://www.w3.org/2000/svg"
 width="1024.000000pt" height="898.000000pt" viewBox="0 0 1024.000000 898.000000"
 preserveAspectRatio="xMidYMid meet">

<g transform="translate(0.000000,898.000000) scale(0.100000,-0.100000)"
fill="#000000" stroke="none">
<path d="M0 5730 l0 -3230 800 0 800 0 -95 108 c-267 302 -464 598 -650 977
-161 329 -262 605 -349 957 -111 447 -156 832 -156 1344 0 485 42 849 146
1274 152 620 438 1222 800 1685 38 50 74 96 78 103 6 9 -145 12 -683 12 l-691
0 0 -3230z"/>
<path d="M8944 8868 c312 -457 516 -973 610 -1541 48 -284 57 -418 63 -870 3
-235 2 -439 -1 -452 l-6 -25 -2971 0 -2970 0 6 -157 c14 -385 41 -649 90 -918
97 -522 280 -970 534 -1300 383 -499 967 -757 1655 -732 593 22 1120 268 1620
756 232 227 450 496 641 791 49 74 89 136 90 138 3 3 1525 -756 1534 -764 10
-9 -152 -279 -302 -504 -175 -264 -345 -485 -529 -692 -43 -48 -78 -89 -78
-92 0 -3 288 -6 640 -6 l640 0 0 3230 0 3230 -664 0 -665 0 63 -92z"/>
<path d="M5011 8800 c-40 -6 -125 -23 -188 -40 -571 -149 -978 -624 -1048
-1222 l-6 -58 1355 0 1356 0 0 23 c0 12 -5 63 -10 112 -40 359 -171 640 -399
858 -168 160 -363 259 -616 312 -95 20 -339 28 -444 15z"/>
<path d="M5281 1698 c-5 -13 -147 -378 -315 -812 -168 -433 -306 -792 -306
-797 0 -6 67 -8 161 -7 l161 3 66 163 67 162 279 -2 279 -3 66 -160 66 -160
163 -3 c89 -1 162 0 162 3 0 12 -584 1611 -593 1623 -7 8 -45 12 -128 12 -115
0 -120 -1 -128 -22z m208 -741 c57 -159 101 -291 98 -293 -2 -3 -87 -3 -189
-2 l-185 3 32 110 c17 61 56 192 85 293 29 100 54 181 55 180 1 -2 48 -133
104 -291z"/>
<path d="M6710 900 l0 -820 165 0 165 0 2 534 3 533 420 -553 420 -554 112 0
113 0 0 820 0 820 -160 0 -160 0 0 -536 c0 -321 -4 -533 -9 -530 -5 4 -197
254 -426 556 l-417 550 -114 0 -114 0 0 -820z"/>
<path d="M9343 1710 c-320 -34 -579 -278 -665 -626 -30 -124 -30 -304 0 -428
59 -239 211 -446 401 -545 118 -61 214 -85 346 -84 192 0 343 56 470 175 158
148 238 341 252 606 l6 122 -346 0 -347 0 0 -125 0 -125 171 0 172 0 -5 -48
c-15 -158 -161 -302 -323 -318 -179 -19 -336 76 -423 256 -69 141 -87 286 -56
437 49 240 188 397 380 432 144 26 303 -49 397 -189 16 -25 31 -46 33 -48 4
-6 264 128 264 137 0 4 -18 36 -40 70 -113 174 -288 278 -507 301 -48 5 -92 9
-98 8 -5 0 -42 -4 -82 -8z"/>
<path d="M20 880 l0 -800 415 0 415 0 0 135 0 135 -260 0 -260 0 0 210 0 210
250 0 250 0 0 135 0 135 -250 0 -250 0 0 185 0 185 260 0 261 0 -3 133 -3 132
-412 3 -413 2 0 -800z"/>
<path d="M1620 881 l0 -801 150 0 150 0 2 317 3 316 189 -312 c104 -172 194
-315 200 -317 6 -2 93 -3 193 -2 l182 3 -214 327 c-118 179 -215 331 -215 337
0 6 8 11 18 11 34 1 103 40 156 90 149 141 184 408 78 603 -32 60 -104 127
-170 161 -99 50 -156 58 -449 63 l-273 5 0 -801z m415 538 c146 -21 204 -78
213 -213 6 -94 -11 -151 -57 -197 -44 -45 -91 -59 -193 -59 l-78 0 0 233 c0
129 3 237 7 240 8 9 24 9 108 -4z"/>
<path d="M3350 880 l0 -800 375 0 375 0 0 135 0 135 -225 0 -225 0 0 665 0
665 -150 0 -150 0 0 -800z"/>
</g>
</svg>
