<?xml version="1.0" standalone="no"?>
<!DOCTYPE svg PUBLIC "-//W3C//DTD SVG 20010904//EN"
 "http://www.w3.org/TR/2001/REC-SVG-20010904/DTD/svg10.dtd">
<svg version="1.0" xmlns="http://www.w3.org/2000/svg"
 width="512.000000pt" height="512.000000pt" viewBox="0 0 512.000000 512.000000"
 preserveAspectRatio="xMidYMid meet">

<g transform="translate(0.000000,512.000000) scale(0.100000,-0.100000)"
fill="#000000" stroke="none">
<path d="M4345 3592 c-236 -137 -482 -280 -546 -318 -64 -38 -222 -130 -352
-204 -1057 -603 -1537 -882 -1537 -894 1 -15 51 -81 108 -140 68 -71 138 -121
224 -161 108 -50 194 -68 318 -68 203 0 379 70 522 209 39 38 106 118 135 163
4 6 653 -373 653 -382 0 -21 -130 -195 -207 -277 -215 -228 -510 -389 -826
-452 -158 -31 -396 -31 -554 0 -215 43 -432 135 -606 259 -144 102 -335 309
-422 458 -10 16 -58 -10 -458 -240 -262 -151 -447 -264 -447 -272 0 -8 28 -42
63 -76 54 -53 179 -128 997 -600 514 -297 962 -551 995 -565 48 -21 77 -26
145 -26 47 -1 106 5 133 13 71 21 1950 1108 2014 1165 37 33 64 71 90 124 l38
76 0 1175 0 1176 -25 53 -25 53 -430 -249z m-435 -862 l0 -79 83 -3 82 -3 0
-85 0 -85 -82 -3 -83 -3 0 -79 0 -80 -85 0 -85 0 0 80 0 80 -85 0 -85 0 0 90
0 90 85 0 85 0 0 80 0 80 85 0 85 0 0 -80z m630 0 l0 -80 85 0 85 0 0 -90 0
-90 -85 0 -85 0 0 -80 0 -80 -85 0 -85 0 0 80 0 80 -85 0 -85 0 0 90 0 90 85
0 85 0 0 80 0 80 85 0 85 0 0 -80z"/>
</g>
</svg>
