<svg width="24" height="24" viewBox="0 0 24 24" fill="none" xmlns="http://www.w3.org/2000/svg">
<path fill-rule="evenodd" clip-rule="evenodd" d="M11.3991 0.668047C11.7705 0.459609 12.2279 0.459609 12.5988 0.668047C14.4341 1.69823 19.957 4.7993 21.7928 5.82948C22.1643 6.03736 22.393 6.42255 22.393 6.83942C22.393 8.89986 22.393 15.1014 22.393 17.1617C22.393 17.5787 22.1643 17.9638 21.7928 18.1722C19.9575 19.2025 14.4347 22.3035 12.5988 23.3337C12.2273 23.5421 11.77 23.5421 11.3991 23.3337C9.56378 22.3035 4.04091 19.2025 2.20503 18.1722C1.83416 17.9638 1.60547 17.5792 1.60547 17.1623C1.60547 15.1019 1.60547 8.90042 1.60547 6.83998C1.60547 6.42311 1.83416 6.03792 2.20559 5.82948C4.04034 4.7993 9.56434 1.69823 11.3991 0.668047Z" fill="#283593"/>
<path fill-rule="evenodd" clip-rule="evenodd" d="M1.77178 17.6928C1.62628 17.498 1.60547 17.3131 1.60547 17.0642C1.60547 15.0158 1.60547 8.84984 1.60547 6.80097C1.60547 6.38622 1.83359 6.00328 2.20397 5.79647C4.03272 4.77228 9.53703 1.68928 11.3658 0.664592C11.7361 0.457217 12.2377 0.461592 12.6081 0.668967C14.4368 1.69315 19.9225 4.74984 21.7513 5.77403C21.899 5.85715 22.0117 5.95728 22.1123 6.08915L1.77178 17.6928Z" fill="#5C6BC0"/>
<path fill-rule="evenodd" clip-rule="evenodd" d="M11.9994 4.34131C16.2264 4.34131 19.6579 7.77331 19.6579 12.0008C19.6579 16.2283 16.2264 19.6604 11.9994 19.6604C7.77245 19.6604 4.34082 16.2283 4.34082 12.0008C4.34082 7.77331 7.77245 4.34131 11.9994 4.34131ZM11.9994 8.17106C14.1126 8.17106 15.8286 9.88681 15.8286 12.0008C15.8286 14.1143 14.1126 15.8306 11.9994 15.8306C9.8862 15.8306 8.17013 14.1143 8.17013 12.0008C8.17013 9.88681 9.88563 8.17106 11.9994 8.17106Z" fill="white"/>
<path fill-rule="evenodd" clip-rule="evenodd" d="M22.111 6.09448C22.3933 6.35873 22.3878 6.75698 22.3878 7.07048C22.3878 9.14679 22.3703 15.0523 22.3927 17.1285C22.3949 17.3452 22.3232 17.5734 22.2161 17.7452L11.7764 12.0005L22.111 6.09448Z" fill="#3949AB"/>
</svg>
