<svg width="25" height="25" viewBox="0 0 25 25" fill="none" xmlns="http://www.w3.org/2000/svg">
<path d="M9.5695 18.6172C9.5695 18.6172 8.70062 19.1228 10.1879 19.294C11.99 19.4994 12.9104 19.4698 14.8959 19.0938C14.8959 19.0938 15.418 19.4211 16.1474 19.7048C11.6964 21.6129 6.07344 19.5943 9.5695 18.6172Z" fill="#5382A1"/>
<path d="M9.02559 16.1277C9.02559 16.1277 8.05103 16.8493 9.53947 17.0034C11.464 17.2016 12.9842 17.218 15.6142 16.7111C15.6142 16.7111 15.9783 17.0804 16.5504 17.2819C11.1684 18.8554 5.17416 17.4063 9.02547 16.1277" fill="#5382A1"/>
<path d="M13.6109 11.9045C14.7077 13.168 13.3225 14.3043 13.3225 14.3043C13.3225 14.3043 16.1079 12.8664 14.8288 11.0656C13.6339 9.38677 12.7181 8.55258 17.6775 5.67627C17.6775 5.67627 9.89317 7.62027 13.6109 11.9045Z" fill="#E76F00"/>
<path d="M19.4979 20.459C19.4979 20.459 20.1411 20.989 18.7902 21.3992C16.2207 22.1774 8.09597 22.4125 5.83916 21.4301C5.02803 21.0772 6.54947 20.5874 7.02803 20.484C7.52716 20.376 7.81241 20.3964 7.81241 20.3964C6.91016 19.7604 1.98053 21.6441 5.30847 22.184C14.3838 23.6555 21.8521 21.521 19.4978 20.459" fill="#5382A1"/>
<path d="M9.9873 13.5481C9.9873 13.5481 5.85467 14.5298 8.52386 14.886C9.6508 15.0374 11.8977 15.0032 13.99 14.8274C15.7004 14.6832 17.418 14.3764 17.418 14.3764C17.418 14.3764 16.815 14.6352 16.3785 14.9327C12.1815 16.0369 4.07461 15.5234 6.40842 14.3942C8.38242 13.4402 9.9873 13.5481 9.9873 13.5481Z" fill="#5382A1"/>
<path d="M17.4009 17.6923C21.667 15.4755 19.6939 13.3448 18.3173 13.6319C17.9803 13.7024 17.8295 13.763 17.8295 13.763C17.8295 13.763 17.9546 13.5667 18.1942 13.4818C20.9178 12.5245 23.0127 16.3063 17.3147 17.8042C17.3147 17.8042 17.3811 17.745 17.4009 17.6923Z" fill="#5382A1"/>
<mask id="mask0_5786_6929" style="mask-type:luminance" maskUnits="userSpaceOnUse" x="9" y="1" width="7" height="13">
<path d="M9.57202 1.03369H15.444V13.5083H9.57202V1.03369Z" fill="white"/>
</mask>
<g mask="url(#mask0_5786_6929)">
<path d="M14.8287 1.03168C14.8287 1.03168 17.1915 3.39524 12.5876 7.02974C8.89638 9.94499 11.7463 11.6075 12.5863 13.5069C10.4315 11.5627 8.85019 9.85087 9.91107 8.25818C11.4684 5.91974 15.7819 4.78605 14.8287 1.03162" fill="#E76F00"/>
</g>
<path d="M10.4066 23.7003C14.5017 23.9623 20.7895 23.5548 20.9382 21.6171C20.9382 21.6171 20.6518 22.3512 17.5543 22.9345C14.0591 23.5923 9.74827 23.5159 7.19189 23.0939C7.19189 23.0939 7.71521 23.5271 10.4065 23.7003" fill="#5382A1"/>
</svg>
