<svg width="24" height="25" viewBox="0 0 24 25" fill="none" xmlns="http://www.w3.org/2000/svg">
<g clip-path="url(#clip0_5786_7024)">
<path fill-rule="evenodd" clip-rule="evenodd" d="M10.453 0.963887C10.8279 0.753574 11.2894 0.753574 11.6637 0.963887C13.5159 2.0032 19.0896 5.13157 20.9423 6.17089C21.3172 6.38064 21.548 6.7692 21.548 7.18982C21.548 9.26839 21.548 15.5247 21.548 17.6033C21.548 18.0239 21.3172 18.4124 20.9423 18.6228C19.0901 19.6621 13.5165 22.7904 11.6637 23.8298C11.2889 24.0401 10.8273 24.0401 10.453 23.8298C8.60084 22.7904 3.02715 19.6621 1.1744 18.6228C0.800086 18.4124 0.569336 18.0244 0.569336 17.6039C0.569336 15.5253 0.569336 9.26895 0.569336 7.19032C0.569336 6.76976 0.800086 6.3812 1.17496 6.17089C3.02659 5.13157 8.6014 2.0032 10.453 0.963887Z" fill="#283593"/>
<path fill-rule="evenodd" clip-rule="evenodd" d="M0.737148 18.1392C0.590336 17.9427 0.569336 17.7561 0.569336 17.505C0.569336 15.4385 0.569336 9.2181 0.569336 7.15104C0.569336 6.73266 0.799523 6.34635 1.17327 6.13773C3.01884 5.10448 8.57377 1.99429 10.4193 0.960476C10.7931 0.751288 11.2993 0.755726 11.6731 0.964913C13.5187 1.9981 19.0548 5.08185 20.9004 6.11504C21.0495 6.19898 21.1632 6.29998 21.2648 6.43298L0.737148 18.1392Z" fill="#5C6BC0"/>
<path fill-rule="evenodd" clip-rule="evenodd" d="M11.0588 4.66968C15.3246 4.66968 18.7878 8.13199 18.7878 12.3969C18.7878 16.6617 15.3246 20.1241 11.0588 20.1241C6.79296 20.1241 3.32983 16.6617 3.32983 12.3969C3.32983 8.13199 6.79296 4.66968 11.0588 4.66968ZM11.0588 8.53324C13.1914 8.53324 14.9233 10.2642 14.9233 12.3969C14.9233 14.5291 13.1914 16.2605 11.0588 16.2605C8.92615 16.2605 7.19427 14.5291 7.19427 12.3969C7.19427 10.2642 8.92558 8.53324 11.0588 8.53324Z" fill="white"/>
<path fill-rule="evenodd" clip-rule="evenodd" d="M21.2637 6.43835C21.5485 6.70498 21.543 7.10679 21.543 7.42304C21.543 9.51767 21.5254 15.4754 21.548 17.57C21.5502 17.7885 21.4779 18.0187 21.3697 18.192L10.834 12.3966L21.2637 6.43835Z" fill="#3949AB"/>
<path fill-rule="evenodd" clip-rule="evenodd" d="M16.5793 10.1888H17.1314V14.6043H16.5793V10.1888ZM18.2356 10.1888H18.7877V14.6043H18.2356V10.1888Z" fill="white"/>
<path fill-rule="evenodd" clip-rule="evenodd" d="M15.4753 12.9487H19.8919V13.5006H15.4753V12.9487ZM15.4753 11.2928H19.8919V11.8448H15.4753V11.2928Z" fill="white"/>
</g>
<defs>
<clipPath id="clip0_5786_7024">
<rect width="24" height="24" fill="white" transform="translate(0 0.5)"/>
</clipPath>
</defs>
</svg>
