<?xml version="1.0" standalone="no"?>
<!DOCTYPE svg PUBLIC "-//W3C//DTD SVG 20010904//EN"
 "http://www.w3.org/TR/2001/REC-SVG-20010904/DTD/svg10.dtd">
<svg version="1.0" xmlns="http://www.w3.org/2000/svg"
 width="48.000000pt" height="48.000000pt" viewBox="0 0 48.000000 48.000000"
 preserveAspectRatio="xMidYMid meet">

<g transform="translate(0.000000,48.000000) scale(0.100000,-0.100000)"
fill="#000000" stroke="none">
<path d="M180 418 c0 -5 -9 -8 -20 -8 -11 0 -20 -4 -20 -10 0 -5 -5 -10 -11
-10 -14 0 -39 -25 -39 -39 0 -6 -4 -11 -10 -11 -5 0 -10 -9 -10 -20 0 -11 -3
-20 -8 -20 -4 0 -7 -27 -7 -60 0 -33 3 -60 7 -60 5 0 8 -9 8 -20 0 -11 5 -20
10 -20 6 0 10 -5 10 -11 0 -14 25 -39 39 -39 6 0 11 -4 11 -10 0 -5 9 -10 20
-10 11 0 20 -3 20 -8 0 -4 27 -7 60 -7 33 0 60 3 60 7 0 5 9 8 20 8 11 0 20 5
20 10 0 6 5 10 11 10 14 0 39 25 39 39 0 6 5 11 10 11 6 0 10 9 10 20 0 11 3
20 8 20 4 0 7 27 7 60 0 33 -3 60 -7 60 -5 0 -8 9 -8 20 0 11 -4 20 -10 20 -5
0 -10 5 -10 11 0 14 -25 39 -39 39 -6 0 -11 5 -11 10 0 6 -9 10 -20 10 -11 0
-20 3 -20 8 0 4 -27 7 -60 7 -33 0 -60 -3 -60 -7z m70 -18 c0 -5 -4 -10 -10
-10 -5 0 -10 5 -10 10 0 6 5 10 10 10 6 0 10 -4 10 -10z m9 -16 c17 16 22 16
48 3 45 -24 76 -62 68 -86 -4 -14 -1 -23 9 -27 21 -8 21 -54 1 -54 -8 0 -15
-7 -15 -15 0 -24 -26 -17 -45 11 -16 25 -16 28 -1 36 23 13 21 65 -3 78 -11 5
-61 10 -112 10 -84 0 -90 1 -78 17 8 9 27 22 44 29 25 10 33 10 48 -3 15 -15
19 -15 36 1z m-159 -94 c0 -5 -4 -10 -10 -10 -5 0 -10 5 -10 10 0 6 5 10 10
10 6 0 10 -4 10 -10z m300 0 c0 -5 -4 -10 -10 -10 -5 0 -10 5 -10 10 0 6 5 10
10 10 6 0 10 -4 10 -10z m-270 -51 c0 -47 -2 -50 -22 -47 -30 4 -37 52 -12 79
27 30 34 23 34 -32z m140 36 c0 -10 -11 -15 -35 -15 -24 0 -35 5 -35 15 0 10
11 15 35 15 24 0 35 -5 35 -15z m-7 -82 c16 -37 25 -43 70 -43 23 0 36 -4 32
-10 -3 -5 -16 -10 -28 -10 -13 0 -26 -9 -32 -22 -9 -20 -18 -23 -65 -23 -47 0
-56 3 -65 23 -6 13 -19 22 -32 22 -12 0 -25 5 -28 10 -4 6 18 10 59 10 59 0
66 2 66 20 0 13 -7 20 -20 20 -11 0 -20 7 -20 15 0 9 9 15 25 15 18 0 29 -8
38 -27z m-103 -83 c0 -5 -4 -10 -10 -10 -5 0 -10 5 -10 10 0 6 5 10 10 10 6 0
10 -4 10 -10z m180 0 c0 -5 -4 -10 -10 -10 -5 0 -10 5 -10 10 0 6 5 10 10 10
6 0 10 -4 10 -10z"/>
</g>
</svg>
