<svg width="28" height="29" viewBox="0 0 28 29" fill="none" xmlns="http://www.w3.org/2000/svg">
<path fill-rule="evenodd" clip-rule="evenodd" d="M4.61566 15.5281C4.65941 16.2937 5.42504 15.9437 5.77504 15.7031C6.10316 15.4624 6.21254 15.6593 6.23441 15.1999C6.25629 14.8937 6.27816 14.6093 6.27816 14.3031C5.77504 14.2593 5.22816 14.3687 4.81254 14.675C4.61566 14.8281 4.20004 15.3312 4.61566 15.5281Z" fill="#F6D2A2"/>
<path d="M5.03122 16.075C4.8781 16.075 4.59372 16.0094 4.54997 15.5719C4.41872 15.4844 4.37497 15.375 4.37497 15.3094C4.3531 15.0469 4.63747 14.7407 4.7906 14.6313C5.1406 14.3688 5.59997 14.2375 6.08122 14.2375H6.3656V14.3032C6.38747 14.5438 6.3656 14.7844 6.34372 15.0032C6.34372 15.0688 6.34372 15.1344 6.32185 15.2C6.29997 15.5282 6.23435 15.5719 6.08122 15.6375C6.0156 15.6594 5.94997 15.6813 5.8406 15.7688C5.73122 15.8344 5.35935 16.075 5.03122 16.075ZM6.08122 14.3688C5.62185 14.3688 5.20622 14.5 4.8781 14.7407C4.72497 14.85 4.50622 15.1125 4.5281 15.2875C4.5281 15.3532 4.57185 15.4188 4.65935 15.4625L4.7031 15.4844V15.5282C4.72497 15.8782 4.89997 15.9219 5.03122 15.9219C5.24997 15.9219 5.55622 15.7688 5.7531 15.6375C5.88435 15.55 5.97185 15.5282 6.03747 15.5063C6.14685 15.4625 6.16872 15.4625 6.1906 15.2C6.1906 15.1344 6.1906 15.0688 6.21247 15.0032C6.23435 14.8063 6.23435 14.5875 6.23435 14.3907C6.16872 14.3688 6.12497 14.3688 6.08122 14.3688Z" fill="black"/>
<path fill-rule="evenodd" clip-rule="evenodd" d="M4.61572 15.5281C4.7251 15.4844 4.85635 15.4625 4.92197 15.3531L4.61572 15.5281Z" fill="#C6B198"/>
<path d="M4.61571 15.5938C4.59384 15.5938 4.55009 15.5719 4.55009 15.55C4.52821 15.5063 4.55009 15.4625 4.59384 15.4625C4.61571 15.4625 4.63759 15.4406 4.63759 15.4406C4.72509 15.3969 4.81259 15.375 4.85634 15.3094C4.87821 15.2875 4.92196 15.2656 4.96571 15.2875C4.98759 15.3094 5.00946 15.3531 4.98759 15.3969C4.90009 15.5063 4.79071 15.55 4.70321 15.5719L4.65946 15.5938H4.61571Z" fill="black"/>
<path fill-rule="evenodd" clip-rule="evenodd" d="M6.40945 6.27494C3.43446 5.44369 5.64383 1.65932 8.0282 3.21244L6.40945 6.27494Z" fill="#6AD7E5"/>
<path d="M6.45301 6.36252L6.38738 6.34065C4.85613 5.90315 4.87801 4.8094 4.92176 4.48127C5.03113 3.65002 5.81863 2.77502 6.86863 2.77502C7.28426 2.77502 7.67801 2.90627 8.07176 3.16877L8.13738 3.21252L6.45301 6.36252ZM6.86863 2.92815C5.88426 2.92815 5.16238 3.73752 5.05301 4.50315C4.94363 5.29065 5.42488 5.90315 6.36551 6.18752L7.91863 3.2344C7.59051 3.03752 7.24051 2.92815 6.86863 2.92815Z" fill="black"/>
<path fill-rule="evenodd" clip-rule="evenodd" d="M19.6001 2.92809C21.9407 1.28746 24.0845 5.00621 21.3501 5.94684L19.6001 2.92809Z" fill="#6AD7E5"/>
<path d="M21.3281 6.03442L19.5125 2.9063L19.5781 2.86255C19.9937 2.57817 20.4093 2.42505 20.825 2.42505C21.8312 2.42505 22.5531 3.2563 22.7062 4.06567C22.7718 4.3938 22.8375 5.50942 21.3937 5.99067L21.3281 6.03442ZM19.7093 2.97192L21.3937 5.8813C22.2468 5.57505 22.6843 4.9188 22.5531 4.1313C22.4218 3.38755 21.7437 2.62192 20.825 2.62192C20.4531 2.60005 20.0812 2.70942 19.7093 2.97192Z" fill="black"/>
<path fill-rule="evenodd" clip-rule="evenodd" d="M20.125 25.0657C20.7156 25.4375 21.8094 26.5532 20.9125 27.1C20.0594 27.8875 19.5781 26.225 18.8125 26.0063C19.1406 25.5688 19.5562 25.1532 20.125 25.0657Z" fill="#F6D2A2"/>
<path d="M20.453 27.3844C20.103 27.3844 19.7968 27.0344 19.5343 26.7063C19.2937 26.4438 19.053 26.1594 18.7905 26.0719L18.6812 26.05L18.7468 25.9625C19.0093 25.5906 19.4468 25.1094 20.103 25H20.1249L20.1468 25.0219C20.5187 25.2625 21.328 25.9406 21.3062 26.575C21.3062 26.8156 21.1749 27.0125 20.9343 27.1656C20.7812 27.3187 20.628 27.3844 20.453 27.3844ZM18.9218 25.9625C19.1843 26.0719 19.403 26.3563 19.6218 26.5969C19.8843 26.925 20.1468 27.2094 20.4312 27.2094C20.5624 27.2094 20.6937 27.1437 20.8249 27.0125H20.8468C21.0437 26.8812 21.153 26.7281 21.153 26.5312C21.153 26.0281 20.5187 25.3937 20.0812 25.1094C19.6874 25.2187 19.2937 25.4813 18.9218 25.9625ZM20.9124 27.1656C20.8905 27.1656 20.8687 27.1437 20.8468 27.1219C20.803 27.0344 20.7593 26.925 20.7374 26.8375C20.6718 26.6625 20.6062 26.4875 20.4749 26.3562C20.453 26.3344 20.453 26.2906 20.4749 26.2469C20.4968 26.225 20.5405 26.225 20.5843 26.2469C20.7374 26.4 20.8249 26.5969 20.8905 26.7937L20.9999 27.0562C21.0218 27.1 20.9999 27.1437 20.978 27.1656H20.9124Z" fill="black"/>
<path fill-rule="evenodd" clip-rule="evenodd" d="M9.45006 26.3343C8.75006 26.4437 8.35631 27.0781 7.76568 27.4062C7.21881 27.7343 7.00006 27.2968 6.95631 27.2093C6.86881 27.1656 6.86881 27.2531 6.73756 27.1218C6.23443 26.3124 7.26256 25.7218 7.80943 25.3281C8.57506 25.1531 9.05631 25.8093 9.45006 26.3343Z" fill="#F6D2A2"/>
<path d="M7.39365 27.5813C7.10927 27.5813 6.95615 27.3406 6.9124 27.2531H6.89052C6.8249 27.2531 6.78115 27.2313 6.69365 27.1438V27.1219C6.2124 26.3562 7.04365 25.7656 7.59052 25.3719L7.7874 25.2406H7.83115C7.91865 25.2187 7.98427 25.2188 8.07177 25.2188C8.72802 25.2188 9.14365 25.7875 9.49365 26.2469L9.60302 26.4L9.47177 26.4219C9.05615 26.4875 8.7499 26.75 8.44365 27.0125C8.24677 27.1875 8.0499 27.3406 7.83115 27.4719C7.65615 27.5375 7.5249 27.5813 7.39365 27.5813ZM6.9124 27.1219C6.93427 27.1219 6.95615 27.1219 6.9999 27.1438H7.02177L7.04365 27.1656C7.0874 27.2313 7.19677 27.4281 7.41552 27.4281C7.5249 27.4281 7.63427 27.3844 7.74365 27.3188C7.9624 27.2094 8.15927 27.0344 8.33427 26.8813C8.61865 26.6406 8.9249 26.3781 9.31865 26.2688C8.99052 25.8313 8.59677 25.35 8.0499 25.35C7.98427 25.35 7.91865 25.35 7.85302 25.3719L7.67802 25.5031C7.10927 25.8969 6.40927 26.4 6.8249 27.0563C6.84677 27.1 6.86865 27.1219 6.9124 27.1219ZM6.95615 27.275C6.9124 27.275 6.86865 27.2313 6.89052 27.1875C6.9124 26.9688 7.02177 26.8156 7.13115 26.6406C7.19677 26.5531 7.24052 26.4656 7.28427 26.3781C7.30615 26.3344 7.3499 26.3344 7.37177 26.3344C7.41552 26.3562 7.41552 26.4 7.41552 26.4219C7.37177 26.5313 7.30615 26.6188 7.24052 26.7063C7.13115 26.8594 7.04365 26.9906 7.02177 27.1656C7.02177 27.2531 6.9999 27.275 6.95615 27.275Z" fill="black"/>
<path fill-rule="evenodd" clip-rule="evenodd" d="M6.5407 5.2469C6.14695 5.05002 5.86258 4.76565 6.1032 4.30627C6.32195 3.89065 6.73758 3.9344 7.13133 4.13127L6.5407 5.2469ZM20.7376 4.85315C21.1313 4.65627 21.4157 4.3719 21.1751 3.91252C20.9563 3.4969 20.5407 3.54065 20.147 3.73752L20.7376 4.85315Z" fill="black"/>
<path fill-rule="evenodd" clip-rule="evenodd" d="M23.4281 15.4187C23.3844 16.1843 22.6188 15.8343 22.2688 15.5937C21.9406 15.3531 21.8312 15.5499 21.8094 15.0906C21.7875 14.7843 21.7656 14.4999 21.7656 14.1937C22.2688 14.1499 22.8156 14.2593 23.2312 14.5656C23.45 14.7406 23.8437 15.2218 23.4281 15.4187Z" fill="#F6D2A2"/>
<path d="M23.0344 15.9657C22.7062 15.9657 22.3344 15.725 22.225 15.6594C22.1156 15.5938 22.05 15.55 21.9844 15.5282C21.8094 15.4625 21.7656 15.4188 21.7437 15.0907C21.7437 15.025 21.7437 14.9594 21.7219 14.8938C21.7 14.675 21.6781 14.4344 21.7 14.1938V14.1282H21.9844C22.4656 14.1282 22.925 14.2594 23.275 14.5219C23.4281 14.6313 23.7125 14.9375 23.6906 15.2C23.6906 15.2875 23.6469 15.3969 23.5156 15.4625C23.4719 15.9 23.1875 15.9657 23.0344 15.9657ZM21.8312 14.2813C21.8312 14.4782 21.8312 14.6969 21.8531 14.8938C21.8531 14.9594 21.8531 15.025 21.875 15.0907C21.8969 15.3532 21.9187 15.3532 22.0281 15.3969C22.0937 15.4188 22.1812 15.4625 22.3125 15.5282C22.5094 15.6594 22.8156 15.8125 23.0344 15.8125C23.1656 15.8125 23.3406 15.7688 23.3625 15.4188V15.375L23.4062 15.3532C23.4937 15.3094 23.5375 15.2657 23.5375 15.1782C23.5594 15.0032 23.3406 14.7407 23.1875 14.6313C22.8594 14.3907 22.4219 14.2594 21.9844 14.2594C21.9406 14.2813 21.8969 14.2813 21.8312 14.2813Z" fill="black"/>
<path fill-rule="evenodd" clip-rule="evenodd" d="M23.4281 15.4188C23.3187 15.375 23.1875 15.3531 23.1218 15.2438L23.4281 15.4188Z" fill="#C6B198"/>
<path d="M23.4281 15.5063H23.4062L23.3625 15.4844C23.2531 15.4407 23.1437 15.4188 23.0781 15.3094C23.0562 15.2875 23.0562 15.2219 23.1 15.2C23.1218 15.1782 23.1875 15.1782 23.2093 15.2219C23.2531 15.2875 23.3406 15.3094 23.4281 15.3532C23.45 15.3532 23.4718 15.375 23.4718 15.375C23.5156 15.3969 23.5375 15.4407 23.5156 15.4625C23.4937 15.4844 23.45 15.5063 23.4281 15.5063Z" fill="black"/>
<path fill-rule="evenodd" clip-rule="evenodd" d="M13.7376 1.375C16.7126 1.375 19.4907 1.79062 20.9563 4.65625C22.2688 7.85 21.7876 11.3063 22.0063 14.6969C22.1813 17.6063 22.5532 20.9531 21.2188 23.6438C19.7969 26.4656 16.2532 27.1875 13.3438 27.0781C11.0469 26.9906 8.29069 26.2469 6.97819 24.1469C5.46882 21.6969 6.16882 18.0437 6.27819 15.3094C6.40944 12.0719 5.40319 8.8125 6.47507 5.6625C7.54694 2.35938 10.5219 1.61563 13.7376 1.375Z" fill="#6AD7E5"/>
<path d="M13.8469 27.1656H13.3001C12.4032 27.1438 11.0469 26.9906 9.71257 26.4438C8.42195 25.9188 7.48132 25.175 6.86882 24.1906C5.64382 22.2 5.86257 19.4656 6.05945 17.0375C6.1032 16.425 6.14695 15.8563 6.16882 15.3094C6.21257 14.1719 6.12507 12.9906 6.0157 11.875C5.8407 9.81876 5.6657 7.69688 6.34382 5.64063C6.86882 4.10938 7.80945 3.01563 9.23132 2.31563C10.3469 1.76876 11.7251 1.46251 13.6938 1.30938C16.6251 1.28751 19.5344 1.70313 21.0001 4.61251C21.9626 6.95313 21.9626 9.46876 21.9844 11.8969C21.9844 12.8156 21.9844 13.7563 22.0501 14.675C22.0719 14.9594 22.0938 15.2438 22.0938 15.5281C22.2688 18.1969 22.4657 21.2156 21.2407 23.6656C20.6282 24.9125 19.5563 25.8313 18.0907 26.4219C16.9094 26.9031 15.4219 27.1656 13.8469 27.1656ZM13.7376 1.44063C10.6532 1.68126 7.63445 2.35938 6.51882 5.68438C5.8407 7.71876 6.0157 9.81876 6.1907 11.8531C6.2782 12.9906 6.38757 14.15 6.34382 15.3094C6.32195 15.8563 6.2782 16.425 6.23445 17.0375C6.03757 19.4438 5.81882 22.1563 7.02195 24.1031C7.52507 24.9125 9.14382 26.8375 13.3219 26.9906H13.8688C18.7032 26.9906 20.4969 24.8469 21.1532 23.5781C22.3563 21.1719 22.1594 18.1531 22.0063 15.5063C21.9844 15.2219 21.9626 14.9375 21.9626 14.6531C21.9188 13.7344 21.8969 12.7938 21.8969 11.875C21.8751 9.46876 21.8751 6.95313 20.9344 4.63438C20.2782 3.34376 19.2938 2.46876 17.9376 1.96563C16.5376 1.50626 14.9626 1.44063 13.7376 1.44063Z" fill="black"/>
<path fill-rule="evenodd" clip-rule="evenodd" d="M14.2624 5.35626C14.7874 8.46251 19.8624 7.63126 19.1405 4.50314C18.4843 1.70314 14.0874 2.49064 14.2624 5.35626Z" fill="white"/>
<path d="M16.6687 7.3906C15.6843 7.3906 14.4374 6.8656 14.1749 5.3781C14.1312 4.6781 14.3499 4.04373 14.8093 3.56248C15.3124 3.0156 16.078 2.70935 16.8655 2.70935C17.7843 2.70935 18.878 3.1906 19.1843 4.52498C19.3593 5.26873 19.228 5.92498 18.8124 6.44998C18.353 7.01873 17.5437 7.3906 16.6687 7.3906ZM14.328 5.35623C14.4374 5.96873 14.7218 6.44998 15.1812 6.79997C15.5749 7.10623 16.1218 7.25935 16.6687 7.25935C17.478 7.25935 18.2655 6.90935 18.703 6.36248C19.0968 5.88123 19.2062 5.24685 19.053 4.54685C18.7687 3.29998 17.7405 2.86248 16.8655 2.86248C16.1218 2.86248 15.3999 3.16873 14.9187 3.67185C14.503 4.10935 14.2843 4.69998 14.328 5.35623Z" fill="black"/>
<path fill-rule="evenodd" clip-rule="evenodd" d="M8.20306 5.85933C8.90306 8.54996 13.2124 7.87183 13.0593 5.15933C12.8624 1.92183 7.52494 2.53433 8.20306 5.85933Z" fill="white"/>
<path d="M10.5 7.65308C9.55938 7.65308 8.46563 7.1937 8.11563 5.8812C7.9625 5.11558 8.11563 4.41558 8.55313 3.89058C9.03438 3.29995 9.82188 2.94995 10.675 2.94995C11.8125 2.94995 13.0156 3.62808 13.1031 5.15933C13.1469 5.7937 12.95 6.36245 12.5125 6.82183C12.0531 7.32495 11.2875 7.65308 10.5 7.65308ZM10.675 3.10308C9.86563 3.10308 9.12188 3.4312 8.6625 3.97808C8.24688 4.4812 8.11563 5.11558 8.26875 5.83745C8.575 7.06245 9.62501 7.49995 10.5 7.49995C11.2438 7.49995 11.9656 7.21558 12.425 6.71245C12.8188 6.29683 13.0156 5.74995 12.9719 5.15933C12.9281 4.2187 12.2938 3.10308 10.675 3.10308Z" fill="black"/>
<path fill-rule="evenodd" clip-rule="evenodd" d="M14.875 9.07502C14.875 9.46877 14.9625 9.92815 14.8968 10.3656C14.7875 10.5625 14.5906 10.5844 14.4156 10.65C14.175 10.6063 13.9781 10.4531 13.8687 10.2344C13.8031 9.75315 13.8906 9.2719 13.9125 8.79065L14.875 9.07502Z" fill="white"/>
<path d="M14.4156 10.7375C14.1312 10.6937 13.9125 10.5187 13.8031 10.2781C13.7593 9.9281 13.7812 9.59998 13.8031 9.27185C13.825 9.11873 13.825 8.9656 13.825 8.81248V8.72498L14.9406 9.07498V9.11873C14.9406 9.24998 14.9625 9.38123 14.9625 9.53435C14.9843 9.81873 15.0062 10.125 14.9625 10.4094V10.4312C14.875 10.6062 14.7218 10.65 14.5687 10.7156C14.525 10.6937 14.4812 10.7156 14.4156 10.7375ZM13.9343 10.2125C14.0218 10.4094 14.1968 10.5406 14.3937 10.5844C14.4375 10.5625 14.4812 10.5625 14.5031 10.5406C14.6343 10.4969 14.7437 10.4531 14.8093 10.3437C14.8531 10.0812 14.8312 9.79685 14.8093 9.51248C14.8093 9.38123 14.7875 9.24998 14.7875 9.1406L13.9562 8.8781C13.9562 9.00935 13.9343 9.1406 13.9343 9.24998C13.9125 9.59998 13.8906 9.90623 13.9343 10.2125Z" fill="black"/>
<path fill-rule="evenodd" clip-rule="evenodd" d="M10.1281 5.4219C10.1281 5.8594 9.79995 6.2094 9.4062 6.2094C9.01245 6.2094 8.68433 5.8594 8.68433 5.4219C8.68433 4.9844 9.01245 4.6344 9.4062 4.6344C9.79995 4.6344 10.1281 4.9844 10.1281 5.4219Z" fill="black"/>
<path fill-rule="evenodd" clip-rule="evenodd" d="M9.8876 5.5969C9.8876 5.70627 9.8001 5.79377 9.7126 5.79377C9.6251 5.79377 9.5376 5.70627 9.5376 5.5969C9.5376 5.48752 9.6251 5.40002 9.7126 5.40002C9.82197 5.40002 9.8876 5.48752 9.8876 5.5969Z" fill="white"/>
<path fill-rule="evenodd" clip-rule="evenodd" d="M16.2313 5.225C16.2313 5.6625 15.9032 6.0125 15.5095 6.0125C15.1157 6.0125 14.7876 5.6625 14.7876 5.225C14.7876 4.7875 15.1157 4.4375 15.5095 4.4375C15.9032 4.4375 16.2313 4.7875 16.2313 5.225Z" fill="black"/>
<path fill-rule="evenodd" clip-rule="evenodd" d="M16.0126 5.4C16.0126 5.50937 15.9469 5.59687 15.8376 5.59687C15.7501 5.59687 15.6626 5.50937 15.6626 5.4C15.6626 5.29062 15.7282 5.20312 15.8376 5.20312C15.9251 5.20312 16.0126 5.29062 16.0126 5.4ZM12.7751 9.03125C12.4469 9.79688 12.9501 11.35 13.8251 10.2125C13.7594 9.73125 13.8469 9.25 13.8688 8.76875L12.7751 9.03125Z" fill="white"/>
<path d="M13.2345 10.6938C13.0813 10.6938 12.9282 10.6063 12.8188 10.4313C12.5782 10.0813 12.5345 9.42505 12.7095 9.00942L12.7313 8.96567L13.9345 8.65942V8.74692L13.9126 9.22817C13.8907 9.5563 13.8688 9.86255 13.9126 10.1907V10.2125L13.8907 10.2344C13.672 10.5407 13.4532 10.6938 13.2345 10.6938ZM12.8407 9.09692C12.7095 9.4688 12.7532 10.0594 12.9501 10.3438C13.0376 10.475 13.1251 10.5407 13.2345 10.5407C13.3876 10.5407 13.5626 10.4094 13.7376 10.1907C13.6938 9.86255 13.7157 9.53442 13.7595 9.22817L13.7813 8.8563L12.8407 9.09692Z" fill="black"/>
<path fill-rule="evenodd" clip-rule="evenodd" d="M12.8844 7.5438C12.2937 7.58755 11.8125 8.30942 12.1187 8.8563C12.5344 9.60005 13.4312 8.79067 14 8.8563C14.6562 8.87817 15.1812 9.5563 15.7062 8.98755C16.2969 8.35317 15.4437 7.74067 14.8094 7.4563L12.8844 7.5438Z" fill="#F6D2A2"/>
<path d="M15.247 9.29375C15.0501 9.29375 14.8532 9.20625 14.6563 9.11875C14.4595 9.03125 14.2407 8.94375 14.0001 8.94375H13.9345C13.7595 8.94375 13.5626 9.00937 13.3438 9.09687C13.1032 9.18437 12.8626 9.25 12.6438 9.25C12.3813 9.25 12.1845 9.14062 12.0532 8.9C11.9001 8.6375 11.922 8.33125 12.0751 8.04687C12.2501 7.71875 12.5563 7.52187 12.8845 7.47812L14.8313 7.39062H14.8532C15.3345 7.5875 15.8813 7.95937 15.9907 8.39687C16.0345 8.61562 15.9688 8.83437 15.7938 9.03125C15.6188 9.22812 15.4438 9.29375 15.247 9.29375ZM14.022 8.8125C14.2626 8.8125 14.5032 8.92188 14.722 9.00937C14.9188 9.09687 15.0938 9.1625 15.2688 9.1625C15.422 9.1625 15.5532 9.09687 15.6845 8.96562C15.8376 8.8125 15.8813 8.6375 15.8595 8.4625C15.772 8.09063 15.247 7.74062 14.8313 7.56562L12.9282 7.65313C12.6438 7.675 12.3813 7.87188 12.2282 8.13438C12.097 8.375 12.097 8.6375 12.2063 8.85625C12.3157 9.05312 12.447 9.14062 12.6657 9.14062C12.8626 9.14062 13.0813 9.05312 13.3001 8.9875C13.5407 8.9 13.7376 8.83437 13.9563 8.83437C13.9563 8.79062 13.9782 8.79062 14.022 8.8125Z" fill="#231F20"/>
<path fill-rule="evenodd" clip-rule="evenodd" d="M12.8188 7.52192C12.7751 6.4938 14.7438 6.36255 14.9626 7.21567C15.2032 8.09067 12.9063 8.28755 12.8188 7.52192Z" fill="black"/>
</svg>
