<svg width="25" height="25" viewBox="0 0 25 25" fill="none" xmlns="http://www.w3.org/2000/svg">
<mask id="mask0_5786_6942" style="mask-type:luminance" maskUnits="userSpaceOnUse" x="1" y="1" width="17" height="18">
<path d="M1.26904 1.33032H17.9399V18.0199H1.26904V1.33032Z" fill="white"/>
</mask>
<g mask="url(#mask0_5786_6942)">
<mask id="mask1_5786_6942" style="mask-type:luminance" maskUnits="userSpaceOnUse" x="1" y="1" width="17" height="18">
<path d="M12.4237 1.32776C6.72304 1.32776 7.07897 3.80001 7.07897 3.80001L7.08529 6.36132H12.5248V7.13032H4.92472C4.92472 7.13032 1.2771 6.71657 1.2771 12.4688C1.27704 18.2214 4.46085 18.0174 4.46085 18.0174H6.36085V15.3478C6.36085 15.3478 6.25841 12.1636 9.49379 12.1636H14.8891C14.8891 12.1636 17.9199 12.2129 17.9199 9.23395V4.30851C17.9199 4.30851 18.3805 1.32776 12.4237 1.32776ZM9.42391 3.05007C9.96504 3.05007 10.4023 3.48757 10.4023 4.02882C10.4023 4.57013 9.96504 5.00757 9.42391 5.00757C8.8826 5.00757 8.44522 4.57013 8.44522 4.02882C8.44522 3.48757 8.8826 3.05007 9.42391 3.05007Z" fill="white"/>
</mask>
<g mask="url(#mask1_5786_6942)">
<path d="M1.27686 1.33032V18.2215H18.3804V1.33032H1.27686Z" fill="url(#paint0_linear_5786_6942)"/>
</g>
</g>
<mask id="mask2_5786_6942" style="mask-type:luminance" maskUnits="userSpaceOnUse" x="7" y="6" width="17" height="18">
<path d="M7.07593 6.96387H23.7319V23.6742H7.07593V6.96387Z" fill="white"/>
</mask>
<g mask="url(#mask2_5786_6942)">
<mask id="mask3_5786_6942" style="mask-type:luminance" maskUnits="userSpaceOnUse" x="7" y="6" width="17" height="18">
<path d="M12.5852 23.6681C18.2853 23.6681 17.9292 21.1954 17.9292 21.1954L17.9231 18.6339H12.4832V17.8653H20.0834C20.0834 17.8653 23.7313 18.2786 23.7313 12.5268C23.7313 6.77431 20.5476 6.97831 20.5476 6.97831H18.6476V9.64756C18.6476 9.64756 18.7496 12.832 15.5148 12.832H10.119C10.119 12.832 7.08808 12.7827 7.08808 15.7619V20.6871C7.08808 20.6871 6.62783 23.6681 12.5852 23.6681ZM15.5843 21.9454C15.0436 21.9454 14.6057 21.5075 14.6057 20.9667C14.6057 20.4251 15.0436 19.988 15.5843 19.988C16.1259 19.988 16.5629 20.4251 16.5629 20.9667C16.5629 21.5075 16.1259 21.9454 15.5843 21.9454Z" fill="white"/>
</mask>
<g mask="url(#mask3_5786_6942)">
<path d="M6.62793 6.77417V23.6679H23.7314V6.77417H6.62793Z" fill="url(#paint1_linear_5786_6942)"/>
</g>
</g>
<defs>
<linearGradient id="paint0_linear_5786_6942" x1="1.34632" y1="1.26014" x2="18.4302" y2="18.1712" gradientUnits="userSpaceOnUse">
<stop stop-color="#387EB8"/>
<stop offset="0.125" stop-color="#387EB8"/>
<stop offset="0.140625" stop-color="#387EB8"/>
<stop offset="0.15625" stop-color="#387DB7"/>
<stop offset="0.171875" stop-color="#387DB6"/>
<stop offset="0.1875" stop-color="#387CB5"/>
<stop offset="0.203125" stop-color="#387CB4"/>
<stop offset="0.21875" stop-color="#387BB3"/>
<stop offset="0.234375" stop-color="#387BB2"/>
<stop offset="0.25" stop-color="#387AB1"/>
<stop offset="0.265625" stop-color="#387AB1"/>
<stop offset="0.28125" stop-color="#3879B0"/>
<stop offset="0.296875" stop-color="#3879AF"/>
<stop offset="0.3125" stop-color="#3878AE"/>
<stop offset="0.328125" stop-color="#3778AD"/>
<stop offset="0.34375" stop-color="#3777AC"/>
<stop offset="0.359375" stop-color="#3777AB"/>
<stop offset="0.375" stop-color="#3776AB"/>
<stop offset="0.390625" stop-color="#3776AA"/>
<stop offset="0.40625" stop-color="#3775A9"/>
<stop offset="0.421875" stop-color="#3775A8"/>
<stop offset="0.4375" stop-color="#3774A7"/>
<stop offset="0.453125" stop-color="#3774A6"/>
<stop offset="0.46875" stop-color="#3773A5"/>
<stop offset="0.484375" stop-color="#3773A4"/>
<stop offset="0.494335" stop-color="#3772A4"/>
<stop offset="0.5" stop-color="#3772A3"/>
<stop offset="0.505665" stop-color="#3772A3"/>
<stop offset="0.515625" stop-color="#3771A2"/>
<stop offset="0.53125" stop-color="#3771A2"/>
<stop offset="0.546875" stop-color="#3771A1"/>
<stop offset="0.5625" stop-color="#3770A0"/>
<stop offset="0.578125" stop-color="#37709F"/>
<stop offset="0.59375" stop-color="#376F9E"/>
<stop offset="0.609375" stop-color="#376F9D"/>
<stop offset="0.625" stop-color="#376E9D"/>
<stop offset="0.640625" stop-color="#366E9C"/>
<stop offset="0.65625" stop-color="#366D9B"/>
<stop offset="0.671875" stop-color="#366D9A"/>
<stop offset="0.6875" stop-color="#366C99"/>
<stop offset="0.703125" stop-color="#366C98"/>
<stop offset="0.71875" stop-color="#366B97"/>
<stop offset="0.734375" stop-color="#366B97"/>
<stop offset="0.75" stop-color="#366A96"/>
<stop offset="0.765625" stop-color="#366A95"/>
<stop offset="0.78125" stop-color="#366994"/>
<stop offset="0.8125" stop-color="#366994"/>
<stop offset="0.875" stop-color="#366994"/>
<stop offset="1" stop-color="#366994"/>
</linearGradient>
<linearGradient id="paint1_linear_5786_6942" x1="6.53635" y1="6.87102" x2="24.0029" y2="23.3807" gradientUnits="userSpaceOnUse">
<stop stop-color="#FFE052"/>
<stop offset="0.125" stop-color="#FFE052"/>
<stop offset="0.1875" stop-color="#FFE052"/>
<stop offset="0.21875" stop-color="#FFE052"/>
<stop offset="0.234375" stop-color="#FFDF51"/>
<stop offset="0.25" stop-color="#FFDF51"/>
<stop offset="0.265625" stop-color="#FFDE50"/>
<stop offset="0.28125" stop-color="#FFDD4F"/>
<stop offset="0.296875" stop-color="#FFDD4E"/>
<stop offset="0.3125" stop-color="#FFDC4E"/>
<stop offset="0.328125" stop-color="#FFDB4D"/>
<stop offset="0.34375" stop-color="#FFDB4C"/>
<stop offset="0.359375" stop-color="#FFDA4B"/>
<stop offset="0.375" stop-color="#FFD94B"/>
<stop offset="0.390625" stop-color="#FFD94A"/>
<stop offset="0.40625" stop-color="#FFD849"/>
<stop offset="0.421875" stop-color="#FFD748"/>
<stop offset="0.4375" stop-color="#FFD748"/>
<stop offset="0.453125" stop-color="#FFD647"/>
<stop offset="0.46875" stop-color="#FFD546"/>
<stop offset="0.482837" stop-color="#FFD545"/>
<stop offset="0.484375" stop-color="#FFD445"/>
<stop offset="0.5" stop-color="#FFD445"/>
<stop offset="0.515625" stop-color="#FFD444"/>
<stop offset="0.517163" stop-color="#FFD343"/>
<stop offset="0.53125" stop-color="#FFD343"/>
<stop offset="0.546875" stop-color="#FFD242"/>
<stop offset="0.5625" stop-color="#FFD242"/>
<stop offset="0.578125" stop-color="#FFD141"/>
<stop offset="0.59375" stop-color="#FFD040"/>
<stop offset="0.609375" stop-color="#FFD03F"/>
<stop offset="0.625" stop-color="#FFCF3F"/>
<stop offset="0.640625" stop-color="#FFCE3E"/>
<stop offset="0.65625" stop-color="#FFCE3D"/>
<stop offset="0.671875" stop-color="#FFCD3C"/>
<stop offset="0.6875" stop-color="#FFCC3C"/>
<stop offset="0.703125" stop-color="#FFCC3B"/>
<stop offset="0.71875" stop-color="#FFCB3A"/>
<stop offset="0.734375" stop-color="#FFCA39"/>
<stop offset="0.75" stop-color="#FFCA39"/>
<stop offset="0.765625" stop-color="#FFC938"/>
<stop offset="0.78125" stop-color="#FFC837"/>
<stop offset="0.796875" stop-color="#FFC836"/>
<stop offset="0.8125" stop-color="#FFC735"/>
<stop offset="0.828125" stop-color="#FFC635"/>
<stop offset="0.84375" stop-color="#FFC634"/>
<stop offset="0.859375" stop-color="#FFC533"/>
<stop offset="0.875" stop-color="#FFC432"/>
<stop offset="0.890625" stop-color="#FFC432"/>
<stop offset="0.90625" stop-color="#FFC331"/>
<stop offset="0.9375" stop-color="#FFC331"/>
<stop offset="1" stop-color="#FFC331"/>
</linearGradient>
</defs>
</svg>
