<svg width="24" height="24" viewBox="0 0 24 24" fill="none" xmlns="http://www.w3.org/2000/svg">
<path d="M4.6875 20.7069V17.7889H5.7405C6.32419 17.7889 7.25025 17.7508 7.80862 17.7L8.79825 17.6239L7.47863 17.2688C6.74288 17.0784 5.81662 16.7993 5.42344 16.647L4.6875 16.3808V10.4301H5.86744C6.50175 10.4301 7.428 10.392 7.91006 10.3414L8.79825 10.2653L7.23769 9.84657C6.375 9.63113 5.4615 9.33919 5.18231 9.225L4.6875 8.99663V3.23663L5.08087 3.14794C5.2965 3.10988 5.82937 3.07182 6.26081 3.07182C8.39212 3.07182 13.4544 2.37394 15.9411 1.73963C17.6792 1.28288 18.8844 0.826128 19.3031 0.445503C19.5187 0.255191 19.5315 0.369378 19.5315 3.17325V6.10388L19.227 6.33244L18.9225 6.57338L19.5315 7.10625V13.4625L19.227 13.6909L18.9225 13.932L19.5315 14.4649V20.8211L19.2015 21.0748C18.8464 21.354 17.4761 21.8235 15.9158 22.2167C13.4798 22.8257 7.52944 23.625 5.49937 23.625H4.6875V20.7069Z" fill="#390D09"/>
<path d="M4.6875 20.7322V17.8269L6.90787 17.7381C9.21694 17.6494 10.9298 17.4591 13.4417 17.0276C16.2964 16.5328 19.1128 15.6448 19.4047 15.1372C19.4809 15.0103 19.5315 15.9874 19.5315 17.8777V20.8211L19.2015 21.0748C18.8464 21.354 17.4761 21.8235 15.9158 22.2167C13.4798 22.8257 7.52944 23.625 5.49937 23.625H4.6875V20.7322ZM4.6875 13.3738V10.4681L6.90787 10.392C9.36919 10.2906 11.2849 10.0749 13.8223 9.60543C16.6643 9.07255 19.2523 8.20986 19.4428 7.74036C19.4809 7.65168 19.5189 8.88224 19.5189 10.4809C19.5315 13.0183 19.5062 13.4242 19.3159 13.6271C18.8719 14.1221 15.4462 15.0101 11.9192 15.5557C9.77513 15.8857 6.22275 16.2664 5.23294 16.2664H4.6875V13.3738ZM4.6875 6.06599V3.22405L5.08087 3.14793C5.2965 3.10986 5.82937 3.0718 6.26081 3.0718C8.39212 3.0718 13.4544 2.37393 15.9411 1.73961C17.6792 1.28286 18.8844 0.826114 19.3031 0.445489C19.5187 0.255177 19.5315 0.369364 19.5315 3.16049C19.5315 5.88824 19.5189 6.09111 19.2906 6.29436C18.948 6.61143 16.6009 7.33461 14.7737 7.70249C11.8177 8.28618 6.90788 8.90793 5.23312 8.90793H4.6875V6.06599Z" fill="#DE3423"/>
</svg>
